<?xml version="1.0" encoding="utf-8"?>
<!-- Generator: Adobe Illustrator 25.0.1, SVG Export Plug-In . SVG Version: 6.00 Build 0)  -->
<svg version="1.1" id="Capa_1" xmlns="http://www.w3.org/2000/svg" xmlns:xlink="http://www.w3.org/1999/xlink" x="0px" y="0px"
	 viewBox="0 0 140 140" style="enable-background:new 0 0 140 140;" xml:space="preserve">
<style type="text/css">
	.st0{fill:#1995AD;}
	.st1{fill:#FFFFFF;}
</style>
<circle class="st0" cx="70" cy="70" r="70"/>
<path class="st1" d="M70,88.2c7.7-5.6,13.5-11,17.4-16.1c3.9-5.2,5.9-10,5.9-14.5c0-3.9-0.8-7.3-2.4-10c-1.6-2.7-3.6-5-5.9-6.7
	c-2.3-1.7-4.9-3-7.6-3.8C74.7,36.4,72.2,36,70,36s-4.7,0.4-7.4,1.2c-2.7,0.8-5.3,2-7.6,3.8c-2.3,1.7-4.3,4-5.9,6.7
	c-1.6,2.7-2.4,6.1-2.4,10c0,4.5,2,9.3,5.9,14.5C56.5,77.2,62.3,82.6,70,88.2z M70,95.8c-10.1-6.9-17.7-13.4-22.6-19.7
	S40,63.7,40,57.6c0-4.5,0.9-8.5,2.7-11.9s4.2-6.3,7.1-8.7c2.9-2.3,6.1-4.1,9.7-5.2C63,30.6,66.5,30,70,30s7,0.6,10.6,1.8
	c3.6,1.2,6.8,2.9,9.7,5.2s5.2,5.2,7.1,8.7c1.8,3.4,2.7,7.4,2.7,11.9c0,6.1-2.5,12.2-7.4,18.5C87.7,82.4,80.1,88.9,70,95.8z M70,64
	c2.1,0,4-0.7,5.5-2s2.3-3,2.3-5s-0.8-3.6-2.3-5s-3.4-2-5.5-2s-4,0.7-5.5,2s-2.3,3-2.3,5s0.8,3.6,2.3,5S67.9,64,70,64z M40,110v-6h60
	v6H40z"/>
</svg>
