<?xml version="1.0" encoding="utf-8"?>
<!-- Generator: Adobe Illustrator 25.0.1, SVG Export Plug-In . SVG Version: 6.00 Build 0)  -->
<svg version="1.1" id="Capa_1" xmlns="http://www.w3.org/2000/svg" xmlns:xlink="http://www.w3.org/1999/xlink" x="0px" y="0px"
	 viewBox="0 0 141 141" style="enable-background:new 0 0 141 141;" xml:space="preserve">
<style type="text/css">
	.st0{fill:#1995AD;}
	.st1{fill:#FFFFFF;}
</style>
<circle class="st0" cx="70.5" cy="70.1" r="70"/>
<path class="st1" d="M83.8,88l4.2-4.2L73.1,68.9V50.1h-5.6v21L83.8,88z M70,107.3c-5.1,0-9.9-1-14.5-2.9c-4.5-2-8.5-4.6-11.9-8
	c-3.4-3.4-6.1-7.4-8-11.9c-2-4.5-2.9-9.4-2.9-14.5c0-5.1,1-9.9,2.9-14.5c2-4.5,4.6-8.5,8-11.9c3.4-3.4,7.4-6.1,11.9-8
	c4.5-2,9.4-2.9,14.5-2.9c5.1,0,9.9,1,14.5,2.9c4.5,2,8.5,4.6,11.9,8c3.4,3.4,6.1,7.4,8,11.9c2,4.5,2.9,9.4,2.9,14.5
	c0,5.1-1,9.9-2.9,14.5c-2,4.5-4.6,8.5-8,11.9c-3.4,3.4-7.4,6.1-11.9,8C80,106.4,75.1,107.3,70,107.3z M70,101.7
	c8.7,0,16.2-3.1,22.4-9.3c6.2-6.2,9.3-13.7,9.3-22.4s-3.1-16.2-9.3-22.4c-6.2-6.2-13.7-9.3-22.4-9.3s-16.2,3.1-22.4,9.3
	S38.3,61.3,38.3,70s3.1,16.2,9.3,22.4C53.9,98.6,61.3,101.7,70,101.7z"/>
</svg>
