<?xml version="1.0" standalone="no"?>
<!DOCTYPE svg PUBLIC "-//W3C//DTD SVG 20010904//EN"
 "http://www.w3.org/TR/2001/REC-SVG-20010904/DTD/svg10.dtd">
<svg version="1.0" xmlns="http://www.w3.org/2000/svg"
 width="272.000000pt" height="272.000000pt" viewBox="0 0 272.000000 272.000000"
 preserveAspectRatio="xMidYMid meet">
<metadata>
Created by potrace 1.14, written by Peter Selinger 2001-2017
</metadata>
<g transform="translate(0.000000,272.000000) scale(0.100000,-0.100000)"
fill="#000000" stroke="none">
<path d="M313 2608 c-127 -46 -201 -144 -211 -277 -10 -140 53 -253 174 -312
54 -27 79 -33 130 -34 35 0 64 -3 64 -6 0 -3 -9 -14 -20 -24 -26 -24 -154
-192 -204 -268 -89 -136 -115 -248 -83 -358 24 -82 156 -282 276 -418 11 -13
21 -27 21 -31 0 -3 -24 -7 -54 -7 -120 -1 -229 -71 -283 -181 -39 -79 -40
-191 -2 -272 91 -196 347 -249 506 -106 64 58 104 144 106 227 1 32 3 59 5 59
2 0 49 -37 105 -82 116 -93 244 -179 314 -210 75 -34 199 -32 278 5 79 37 231
139 330 222 l80 67 6 -64 c11 -115 53 -192 133 -247 171 -118 395 -56 481 131
94 206 -52 448 -272 452 -34 0 -63 4 -63 7 0 4 36 51 79 105 106 131 198 280
216 349 39 150 -16 278 -235 556 -36 45 -65 85 -65 88 0 3 16 5 35 3 62 -5
163 33 219 84 73 65 104 137 105 239 0 67 -4 89 -27 136 -32 67 -98 131 -165
161 -72 33 -189 31 -263 -5 -109 -53 -175 -148 -187 -272 l-7 -65 -80 66
c-100 82 -233 172 -311 210 -52 26 -70 29 -150 29 -88 0 -95 -2 -176 -43 -82
-41 -279 -181 -345 -244 l-31 -30 -1 66 c-1 219 -221 370 -428 294z m1145
-698 c92 -108 290 -297 409 -393 62 -49 113 -91 113 -93 0 -1 -48 -40 -107
-86 -173 -133 -412 -378 -546 -560 -16 -21 -31 -38 -35 -38 -4 0 -20 19 -37
43 -98 138 -299 350 -474 499 -58 50 -120 105 -137 123 l-31 32 36 24 c20 13
38 26 41 29 3 3 50 44 105 91 165 141 347 335 459 488 l38 51 55 -73 c31 -39
81 -101 111 -137z"/>
<path d="M1526 1500 c-28 -5 -28 -6 -28 -70 l0 -65 38 -1 c53 -2 83 26 79 72
-5 56 -31 75 -89 64z m64 -35 c22 -41 3 -79 -40 -83 l-36 -3 -2 56 -2 55 33 0
c26 0 37 -6 47 -25z"/>
<path d="M1794 1500 c-20 -8 -23 -38 -15 -127 2 -19 66 -16 89 5 21 17 26 31
23 67 -3 44 -53 72 -97 55z m75 -44 c18 -39 3 -72 -38 -78 -17 -3 -33 -2 -36
0 -3 3 -5 30 -5 59 l0 54 32 -3 c25 -2 36 -10 47 -32z"/>
<path d="M852 1487 c-40 -18 -47 -91 -11 -119 59 -49 131 12 105 89 -11 34
-54 48 -94 30z m69 -23 c17 -21 13 -74 -8 -89 -23 -17 -59 -7 -72 21 -26 57
41 115 80 68z"/>
<path d="M1080 1460 c-14 -22 -27 -40 -30 -40 -3 0 -16 16 -29 35 -13 19 -27
35 -32 35 -5 0 -9 -31 -9 -70 0 -40 4 -70 10 -70 6 0 10 24 11 53 0 44 2 49
12 34 35 -54 34 -54 54 -19 10 17 21 32 26 32 4 0 7 -24 7 -52 0 -35 3 -48 9
-39 8 13 7 128 -1 137 -2 2 -15 -15 -28 -36z"/>
<path d="M1656 1434 c-26 -63 -30 -99 -6 -55 7 14 21 21 40 21 19 0 33 -7 40
-21 7 -11 14 -18 17 -15 7 7 -46 136 -56 136 -4 0 -20 -30 -35 -66z m54 -6 c0
-10 -29 -23 -36 -15 -3 2 -2 17 2 32 7 26 8 27 20 10 8 -11 14 -23 14 -27z"/>
<path d="M724 1478 c-43 -20 -51 -80 -16 -120 17 -20 77 -24 88 -7 5 8 -1 10
-20 7 -55 -11 -93 55 -54 94 15 15 28 19 49 14 16 -3 29 -1 29 4 0 6 -3 10 -7
11 -5 0 -17 2 -28 4 -11 2 -30 -1 -41 -7z"/>
<path d="M1150 1438 c0 -78 36 -109 88 -72 18 12 22 25 22 70 0 30 -5 54 -10
54 -6 0 -9 -19 -7 -47 3 -35 -1 -51 -15 -65 -27 -27 -58 -8 -59 35 -2 80 -19
103 -19 25z"/>
<path d="M1295 1425 c2 -81 15 -99 15 -21 l0 58 40 -51 c22 -28 45 -51 50 -51
6 0 10 29 10 65 0 76 -18 88 -22 14 l-3 -50 -38 50 c-20 28 -41 51 -46 51 -4
0 -7 -29 -6 -65z"/>
<path d="M1445 1425 c3 -90 15 -95 15 -7 0 40 -4 72 -8 72 -5 0 -8 -29 -7 -65z"/>
</g>
</svg>
